<?xml version="1.0" encoding="UTF-8"?>
<svg id="Layer_2_copy_2" xmlns="http://www.w3.org/2000/svg" version="1.1" viewBox="0 0 16 16">
  <!-- Generator: Adobe Illustrator 29.8.3, SVG Export Plug-In . SVG Version: 2.1.1 Build 3)  -->
  <defs>
    <style>
      .st0 {
        fill: #fff;
      }
    </style>
  </defs>
  <path class="st0" d="M.42,6.93c.02.13.05.27.08.4,0,0,0,.02,0,.02.02.07.03.13.05.2,0,.01,0,.03,0,.04.02.06.03.12.04.18,0,.01,0,.02,0,.04h.49c.27-.95.7-1.88,1.19-2.75.31.95.69,1.86,1.14,2.75h.62c.55-1.09,1.16-2.15,1.83-3.18.57,1.07,1.18,2.13,1.79,3.18h.67c.62-1.05,1.22-2.11,1.79-3.18.67,1.03,1.28,2.09,1.83,3.18h.62c.44-.89.83-1.8,1.14-2.75.49.87.92,1.8,1.19,2.75h.49s0-.02,0-.04c.02-.06.03-.12.04-.18,0-.01,0-.03,0-.04.02-.07.03-.13.05-.2,0,0,0-.02,0-.02.03-.13.05-.27.08-.4.04.29.06.59.06.88h.35c-.1-4.33-3.64-7.81-8-7.81S.1,3.48,0,7.81h.35c0-.29.02-.59.06-.88ZM15.19,5.37s.01.06.02.09c.05.22.07.44.07.66,0,.37-.06.75-.14,1.13,0,0,0,.02,0,.03,0,0,0,.01,0,.02-.28-.85-.67-1.67-1.1-2.44.09.02.18.04.27.06.23.06.45.13.63.24.11.06.2.13.27.22ZM13.99,4.02c.05-.22.08-.46.08-.7h0c.33.43.61.92.85,1.41-.09-.04-.19-.08-.29-.11-.25-.08-.51-.13-.74-.18.03-.14.07-.28.1-.43ZM3.73,7.6c-.46-.93-.85-1.87-1.16-2.86.98-.16,1.96-.24,2.96-.28-.66,1.02-1.26,2.06-1.81,3.14ZM4.89,1.79c.83-.15,1.68-.21,2.53-.21.1,0,.21,0,.31,0-.69.71-1.28,1.5-1.82,2.31-.36-.69-.71-1.39-1.02-2.11ZM8,1.85c.66.68,1.23,1.43,1.76,2.22-.4,0-.8-.01-1.2-.01-.18,0-.37,0-.55,0-.19,0-.37,0-.55,0-.4,0-.8,0-1.2.01.53-.79,1.1-1.55,1.76-2.22ZM8,7.64s0,0,0,0c0,0,0,0,0,0-.62-1.06-1.23-2.12-1.8-3.2.42,0,.83-.01,1.25-.01.18,0,.37,0,.55,0,.18,0,.37,0,.55,0,.42,0,.83,0,1.25.01-.58,1.08-1.18,2.14-1.8,3.2ZM10.09,3.9c-.55-.81-1.13-1.6-1.82-2.31.1,0,.21,0,.31,0,.85,0,1.7.06,2.53.21-.31.71-.65,1.41-1.02,2.11ZM12.27,7.6c-.55-1.08-1.15-2.12-1.81-3.14,1,.04,1.99.13,2.96.28-.3.98-.7,1.93-1.16,2.86ZM13.57,2.73c.09.17.13.37.13.59,0,.2-.03.41-.07.62-.01.06-.02.12-.04.17-.48-.76-1.02-1.5-1.64-2.15.2.05.4.11.59.19.38.14.73.33,1.03.58ZM11.66,1.41s.03-.09.04-.14c.25.14.5.29.73.45-.27-.09-.54-.15-.81-.21.01-.03.03-.07.04-.1ZM13.3,4.35c-.96-.15-1.92-.22-2.89-.26.36-.69.71-1.4,1.02-2.12.71.7,1.33,1.52,1.86,2.38ZM11.35,1.1c0,.06-.02.13-.04.2,0,.01,0,.02-.01.04-.2-.18-.41-.35-.63-.52.23.08.46.18.68.29ZM8.8.59c.09-.07.17-.12.25-.15.4.09.79.26,1.15.5.2.13.39.27.57.43-.72-.1-1.46-.15-2.19-.15-.12,0-.24,0-.36,0,.04-.06.09-.11.14-.17.14-.17.3-.34.45-.46ZM7.86.38s.1,0,.14,0c.05,0,.1,0,.14,0,.11,0,.22,0,.32,0-.09.08-.17.16-.25.25-.08.09-.15.17-.22.26-.07-.09-.14-.17-.22-.26-.08-.09-.16-.17-.25-.25.11,0,.22,0,.32,0ZM6.95.44c.08.03.16.09.25.15.15.12.31.29.45.46.05.06.09.11.14.17-.12,0-.24,0-.36,0-.73,0-1.47.04-2.19.15.18-.15.38-.3.57-.43.36-.23.74-.41,1.15-.5ZM5.33.82c-.22.16-.43.34-.63.52,0-.01,0-.02-.01-.04-.02-.07-.04-.13-.04-.2.22-.11.45-.2.68-.29ZM5.59,4.09c-.97.04-1.93.12-2.89.26.53-.86,1.15-1.68,1.86-2.38.31.72.66,1.42,1.02,2.12ZM4.3,1.28s.02.09.04.14c.01.04.03.07.04.1-.27.06-.54.12-.81.21.23-.17.48-.32.73-.45ZM2.43,2.73c.3-.25.65-.43,1.03-.58.19-.07.39-.13.59-.19-.62.66-1.17,1.39-1.64,2.15-.01-.06-.03-.12-.04-.17-.04-.21-.07-.42-.07-.62,0-.23.04-.43.13-.59ZM1.93,3.32h0c0,.24.03.48.08.7.03.15.07.3.1.43-.23.04-.49.1-.74.18-.1.03-.2.07-.29.11.23-.5.52-.98.85-1.42ZM.79,5.46s.01-.06.02-.09c.07-.08.16-.15.27-.22.18-.1.4-.18.63-.24.09-.02.18-.04.27-.06-.43.77-.82,1.59-1.1,2.44,0,0,0-.01,0-.02,0,0,0-.02,0-.03-.08-.38-.14-.76-.14-1.13,0-.23.02-.45.07-.66Z"/>
  <path class="st0" d="M16,7.83s0-.01,0-.02H0s0,.01,0,.02c0,.06,0,.11,0,.17,0,4.42,3.58,8,8,8s8-3.58,8-8c0-.06,0-.11,0-.17ZM8.82,8.17c.62,0,1.24,0,1.86,0,.43,0,.85,0,1.28,0,0,0,0,0,0,0-.55,1.1-1.17,2.16-1.84,3.2-.58-1.08-1.18-2.14-1.8-3.2h.5ZM12.27,8.4c.46.93.85,1.87,1.16,2.86-.98.16-1.96.24-2.96.28.66-1.02,1.26-2.06,1.81-3.14ZM8,8.36s0,0,0,0c.62,1.06,1.23,2.12,1.8,3.2-.42,0-.83.01-1.25.01-.18,0-.37,0-.55,0-.18,0-.37,0-.55,0-.42,0-.83,0-1.25-.01.58-1.08,1.18-2.14,1.8-3.2,0,0,0,0,0,0ZM6.24,11.93c.4,0,.8.01,1.2.01.18,0,.37,0,.55,0,.19,0,.37,0,.55,0,.4,0,.8,0,1.2-.01-.53.79-1.1,1.55-1.76,2.22-.66-.68-1.23-1.43-1.76-2.22ZM7.73,14.41c-.1,0-.21,0-.31,0-.85,0-1.7-.06-2.53-.21.31-.71.65-1.41,1.02-2.11.55.81,1.13,1.6,1.82,2.31ZM10.09,12.1c.36.69.71,1.39,1.02,2.11-.83.15-1.68.21-2.53.21-.1,0-.21,0-.31,0,.69-.71,1.28-1.5,1.82-2.31ZM5.31,8.17c.62,0,1.24,0,1.86,0h.5c-.62,1.06-1.23,2.12-1.8,3.2-.67-1.04-1.29-2.1-1.84-3.2,0,0,0,0,0,0,.43,0,.85,0,1.28,0ZM5.54,11.54c-1-.04-1.99-.13-2.96-.28.3-.98.7-1.93,1.16-2.86.55,1.08,1.15,2.12,1.81,3.14ZM.6,8.23c-.02.06-.03.12-.04.18,0,.01,0,.03,0,.04-.02.07-.03.13-.05.2,0,0,0,.02,0,.02-.03.13-.05.27-.08.4-.04-.3-.06-.6-.06-.9h.26s0,.03-.01.05ZM.81,10.63s-.01-.06-.02-.09c-.05-.22-.07-.44-.07-.66,0-.37.06-.75.14-1.13,0,0,0-.02,0-.03,0,0,0-.01,0-.02.28.85.67,1.67,1.1,2.44-.09-.02-.18-.04-.27-.06-.23-.06-.45-.13-.63-.24-.11-.06-.2-.13-.27-.22ZM2.01,11.98c-.05.22-.08.46-.08.7h0c-.33-.43-.61-.92-.85-1.41.09.04.19.08.29.11.25.08.51.13.74.18-.03.14-.07.28-.1.43ZM1.09,8.17c.21,0,.42,0,.63,0,.41,0,.82,0,1.23,0,.16,0,.32,0,.48,0,0,0,0,0,0,0-.45.9-.84,1.82-1.15,2.77-.49-.87-.92-1.81-1.19-2.77ZM2.43,13.27c-.09-.17-.13-.37-.13-.59,0-.2.03-.41.07-.62.01-.06.02-.12.04-.17.48.76,1.02,1.5,1.64,2.15-.2-.05-.4-.11-.59-.19-.38-.14-.73-.33-1.03-.58ZM4.34,14.59s-.03.09-.04.14c-.25-.14-.5-.29-.73-.45.27.09.54.15.81.21-.01.03-.03.07-.04.1ZM2.7,11.65c.96.15,1.92.22,2.89.26-.36.69-.71,1.4-1.02,2.12-.71-.7-1.33-1.52-1.86-2.38ZM4.65,14.9c0-.06.02-.13.04-.2,0-.01,0-.02.01-.04.2.18.41.35.63.52-.23-.08-.46-.18-.68-.29ZM7.2,15.41c-.09.07-.17.12-.25.15-.4-.09-.79-.26-1.15-.5-.2-.13-.39-.27-.57-.43.72.1,1.46.15,2.19.15.12,0,.24,0,.36,0-.04.06-.09.11-.14.17-.14.17-.3.34-.45.46ZM8.14,15.62s-.1,0-.14,0c-.05,0-.1,0-.14,0-.11,0-.22,0-.32,0,.09-.08.17-.16.25-.25.08-.09.15-.17.22-.26.07.09.14.17.22.26.08.09.16.17.25.25-.11,0-.22,0-.32,0ZM9.05,15.56c-.08-.03-.16-.09-.25-.15-.15-.12-.31-.29-.45-.46-.05-.06-.09-.11-.14-.17.12,0,.24,0,.36,0,.73,0,1.47-.04,2.19-.15-.18.15-.38.3-.57.43-.36.23-.74.41-1.15.5ZM10.67,15.18c.22-.16.43-.34.63-.52,0,.01,0,.02.01.04.02.07.04.13.04.2-.22.11-.45.2-.68.29ZM10.41,11.91c.97-.04,1.93-.12,2.89-.26-.53.86-1.15,1.68-1.86,2.38-.31-.72-.66-1.42-1.02-2.12ZM11.7,14.72s-.02-.09-.04-.14c-.01-.04-.03-.07-.04-.1.27-.06.54-.12.81-.21-.23.17-.48.32-.73.45ZM13.57,13.27c-.3.25-.65.43-1.03.58-.19.07-.39.13-.59.19.62-.66,1.17-1.39,1.64-2.15.01.06.03.12.04.17.04.21.07.42.07.62,0,.23-.04.43-.13.59ZM12.57,8.17s0,0,0,0c.16,0,.32,0,.48,0,.41,0,.82,0,1.23,0,.21,0,.42,0,.63,0-.27.96-.7,1.9-1.19,2.77-.31-.95-.7-1.87-1.15-2.77ZM14.07,12.68h0c0-.24-.03-.48-.08-.7-.03-.15-.07-.3-.1-.43.23-.04.49-.1.74-.18.1-.03.2-.07.29-.11-.23.5-.52.98-.85,1.42ZM15.21,10.54s-.01.06-.02.09c-.07.08-.16.15-.27.22-.18.1-.4.18-.63.24-.09.02-.18.04-.27.06.43-.77.82-1.59,1.1-2.44,0,0,0,.01,0,.02,0,0,0,.02,0,.03.08.38.14.76.14,1.13,0,.23-.02.45-.07.66ZM15.58,9.07c-.02-.13-.05-.27-.08-.4,0,0,0-.02,0-.02-.02-.07-.03-.13-.05-.2,0-.01,0-.03,0-.04-.02-.06-.03-.12-.04-.18,0-.02,0-.03-.01-.05h.26c0,.3-.02.6-.06.9Z"/>
</svg>