<?xml version="1.0" encoding="UTF-8"?>
<svg id="Layer_2_copy_2" xmlns="http://www.w3.org/2000/svg" version="1.1" viewBox="0 0 16 16">
  <!-- Generator: Adobe Illustrator 29.8.3, SVG Export Plug-In . SVG Version: 2.1.1 Build 3)  -->
  <defs>
    <style>
      .st0 {
        fill: #afb1b3;
      }
    </style>
  </defs>
  <path class="st0" d="M13.91,6.01L9.95.28c-.11-.16-.31-.26-.54-.28-.23-.01-.44.07-.57.22L2.13,7.55c-.14.15-.17.35-.09.52l3.42,7.57c.08.18.27.31.51.35.04,0,.08,0,.12,0,.19,0,.38-.07.5-.19l5.57-5.31c.05-.05.09-.11.12-.17l1.69-3.86c.07-.15.05-.32-.05-.46ZM7.95,3.02l-1.6,5.36-2.38.79-.54-1.21L7.95,3.02ZM10,10.87l-2.26,2.16.87-2.01,1.39-.15ZM4.43,10.2l2.2-.73.77,1.1-1.38,3.17-1.59-3.53ZM11.16,9.64l-2.68.29-.86-1.22,2-6.68,2.99,4.32-1.44,3.3Z"/>
</svg>