<?xml version="1.0" encoding="UTF-8"?>
<svg id="Layer_2_copy_2" xmlns="http://www.w3.org/2000/svg" version="1.1" xmlns:xlink="http://www.w3.org/1999/xlink" viewBox="0 0 40 40">
  <!-- Generator: Adobe Illustrator 29.8.3, SVG Export Plug-In . SVG Version: 2.1.1 Build 3)  -->
  <defs>
    <style>
      .st0 {
        fill: url(#linear-gradient);
      }
    </style>
    <linearGradient id="linear-gradient" x1="18.09" y1="20.97" x2="29.48" y2="11.75" gradientUnits="userSpaceOnUse">
      <stop offset="0" stop-color="#370044"/>
      <stop offset=".46" stop-color="#e277ff"/>
      <stop offset=".7" stop-color="#c1ff99"/>
    </linearGradient>
  </defs>
  <polygon class="st0" points="24.06 5.06 31.52 15.85 27.91 24.1 21.21 24.82 19.06 21.76 24.06 5.06"/>
  <path d="M16.57,23.69l-5.49,1.84,3.98,8.82,3.44-7.91-1.93-2.75ZM15.87,20.97l4.01-13.41-11.32,12.38,1.36,3.01,5.95-1.98ZM25.02,27.18l-3.47.37-2.18,5.03,5.65-5.4ZM21.21,24.82l6.7-.72,3.61-8.25-7.46-10.79-5,16.7,2.15,3.06ZM34.79,15.04c.25.35.29.76.12,1.14l-4.21,9.64c-.07.16-.17.3-.31.43l-13.91,13.29c-.32.3-.78.47-1.26.47-.1,0-.2,0-.3-.02-.58-.08-1.06-.41-1.26-.87L5.12,20.19c-.2-.44-.11-.93.23-1.3L22.11.56c.34-.37.87-.57,1.44-.54.55.03,1.06.29,1.34.69l9.9,14.33Z"/>
</svg>