<?xml version="1.0" encoding="UTF-8"?>
<svg id="Layer_2_copy_2" xmlns="http://www.w3.org/2000/svg" version="1.1" xmlns:xlink="http://www.w3.org/1999/xlink" viewBox="0 0 40 40">
  <!-- Generator: Adobe Illustrator 29.8.3, SVG Export Plug-In . SVG Version: 2.1.1 Build 3)  -->
  <defs>
    <style>
      .st0 {
        fill: url(#linear-gradient);
      }

      .st1 {
        fill: url(#New_Gradient_Swatch_1);
      }
    </style>
    <linearGradient id="linear-gradient" x1="20" y1="19.53" x2="20" y2="0" gradientUnits="userSpaceOnUse">
      <stop offset="0" stop-color="#f2bb9b"/>
      <stop offset=".25" stop-color="#f29057"/>
      <stop offset=".5" stop-color="#0596a6"/>
      <stop offset=".75" stop-color="#07668c"/>
      <stop offset="1" stop-color="#8d68a6"/>
    </linearGradient>
    <linearGradient id="New_Gradient_Swatch_1" data-name="New Gradient Swatch 1" x1="20" y1="40" x2="20" y2="19.53" gradientUnits="userSpaceOnUse">
      <stop offset="0" stop-color="#8d68a6"/>
      <stop offset=".25" stop-color="#07668c"/>
      <stop offset=".5" stop-color="#0596a6"/>
      <stop offset=".75" stop-color="#f29057"/>
      <stop offset="1" stop-color="#f2bb9b"/>
    </linearGradient>
  </defs>
  <path class="st0" d="M1.05,17.32c.06.34.12.67.19,1,0,.02,0,.04.01.06.04.17.08.33.11.5,0,.03.01.07.02.1.04.15.07.3.11.46,0,.03.02.06.02.09h1.23c.68-2.37,1.74-4.71,2.96-6.88.77,2.37,1.73,4.65,2.84,6.88h1.56c1.38-2.73,2.91-5.38,4.58-7.95,1.43,2.68,2.94,5.32,4.48,7.95h1.67c1.54-2.63,3.05-5.27,4.48-7.95,1.67,2.57,3.19,5.22,4.58,7.95h1.56c1.11-2.23,2.08-4.51,2.84-6.88,1.22,2.17,2.29,4.5,2.96,6.88h1.23s.02-.06.02-.09c.04-.15.07-.3.11-.46,0-.03.01-.06.02-.1.04-.17.08-.33.11-.5,0-.02,0-.04.01-.06.07-.33.13-.67.19-1,.1.73.16,1.47.16,2.2h.88C39.74,8.7,30.89,0,20,0S.26,8.7,0,19.53h.88c0-.73.06-1.47.16-2.2ZM37.96,13.43c.02.07.04.15.05.22.13.54.18,1.09.18,1.65,0,.92-.15,1.88-.35,2.82,0,.02,0,.04-.01.06,0,.02,0,.04-.01.05-.7-2.12-1.68-4.17-2.76-6.09.22.05.45.09.67.15.57.14,1.12.33,1.56.59.27.16.49.34.66.54ZM34.99,10.06c.11-.56.2-1.15.2-1.74h0c.83,1.09,1.53,2.29,2.12,3.54-.24-.11-.48-.2-.72-.28-.63-.2-1.28-.33-1.85-.44.09-.34.18-.7.26-1.08ZM9.33,19.01c-1.14-2.31-2.13-4.68-2.89-7.14,2.44-.4,4.91-.61,7.41-.71-1.64,2.54-3.15,5.16-4.52,7.85ZM12.23,4.48c2.07-.37,4.19-.52,6.32-.52.26,0,.52,0,.78,0-1.73,1.77-3.2,3.74-4.56,5.78-.9-1.74-1.77-3.48-2.54-5.27ZM20,4.63c1.65,1.69,3.07,3.58,4.4,5.55-1-.02-2.01-.04-3.01-.04-.46,0-.92,0-1.39,0-.46,0-.92,0-1.39,0-1.01,0-2.01.01-3.01.04,1.33-1.98,2.75-3.86,4.4-5.55ZM20,19.11s0,0,0,0c0,0,0,0,0,0-1.55-2.65-3.07-5.31-4.51-8,1.04-.02,2.08-.04,3.12-.04.46,0,.92,0,1.39,0,.46,0,.92,0,1.39,0,1.04,0,2.08.02,3.12.04-1.44,2.69-2.96,5.35-4.51,8ZM25.23,9.75c-1.37-2.03-2.83-4-4.56-5.78.26,0,.52,0,.78,0,2.13,0,4.26.14,6.32.52-.77,1.78-1.64,3.53-2.54,5.27ZM30.67,19.01c-1.37-2.69-2.88-5.31-4.52-7.85,2.5.11,4.97.31,7.41.71-.76,2.46-1.74,4.82-2.89,7.14ZM33.93,6.84c.23.42.33.92.33,1.49,0,.5-.08,1.03-.18,1.55-.03.15-.06.29-.09.44-1.19-1.9-2.55-3.74-4.11-5.38.5.13,1,.28,1.49.47.95.36,1.83.82,2.57,1.44ZM29.16,3.53c.04-.11.07-.22.09-.34.63.34,1.24.72,1.83,1.13-.67-.22-1.35-.39-2.01-.53.03-.09.07-.17.1-.26ZM33.24,10.88c-2.39-.37-4.8-.56-7.22-.66.9-1.74,1.77-3.49,2.56-5.29,1.78,1.76,3.33,3.81,4.66,5.95ZM28.39,2.76c-.01.15-.05.32-.11.49,0,.03-.02.06-.03.09-.49-.45-1.01-.89-1.57-1.29.58.21,1.15.45,1.71.72ZM22.01,1.49c.21-.17.42-.3.62-.38,1,.22,1.96.66,2.86,1.25.5.32.98.68,1.44,1.06-1.81-.26-3.65-.37-5.48-.37-.3,0-.6,0-.9,0,.11-.14.22-.28.34-.42.35-.43.74-.85,1.12-1.15ZM19.64.96c.12,0,.24,0,.36,0,.12,0,.24,0,.36,0,.27,0,.54,0,.81.02-.21.19-.42.4-.61.61-.2.22-.38.44-.56.65-.17-.22-.36-.44-.56-.65-.19-.21-.4-.42-.61-.61.27,0,.54-.02.81-.02ZM17.38,1.1c.19.08.4.21.62.38.38.3.77.72,1.12,1.15.12.14.23.28.34.42-.3,0-.6,0-.9,0-1.83,0-3.67.11-5.48.37.46-.38.94-.74,1.44-1.06.9-.58,1.86-1.03,2.86-1.25ZM13.32,2.04c-.55.41-1.08.85-1.57,1.29-.01-.03-.02-.06-.03-.09-.06-.17-.1-.34-.11-.49.56-.27,1.13-.5,1.71-.72ZM13.97,10.23c-2.42.1-4.83.29-7.22.66,1.33-2.14,2.88-4.19,4.66-5.95.78,1.8,1.65,3.56,2.56,5.29ZM10.75,3.19c.03.12.06.23.09.34.03.09.06.18.1.26-.67.14-1.35.31-2.01.53.58-.41,1.19-.79,1.83-1.13ZM6.07,6.84c.74-.62,1.63-1.08,2.57-1.44.48-.18.98-.34,1.49-.47-1.56,1.64-2.92,3.48-4.11,5.38-.03-.14-.07-.29-.09-.44-.11-.52-.18-1.06-.18-1.55,0-.56.1-1.07.33-1.49ZM4.81,8.31h0c0,.6.09,1.19.2,1.75.08.38.17.74.26,1.08-.57.11-1.22.24-1.85.44-.25.08-.49.17-.72.28.59-1.25,1.29-2.45,2.12-3.55ZM1.98,13.65c.02-.07.03-.14.05-.22.18-.2.4-.39.66-.54.44-.26.99-.45,1.56-.59.22-.06.45-.1.67-.15-1.08,1.92-2.06,3.97-2.76,6.09,0-.02,0-.04-.01-.05,0-.02,0-.04-.01-.06-.2-.94-.35-1.9-.35-2.82,0-.56.06-1.12.18-1.65Z"/>
  <path class="st1" d="M39.99,19.57s0-.03,0-.05H0s0,.03,0,.05c0,.14,0,.28,0,.43,0,11.05,8.95,20,20,20s20-8.95,20-20c0-.14,0-.28,0-.43ZM22.06,20.43c1.56,0,3.11,0,4.66,0,1.07,0,2.14,0,3.2,0,0,0,0,0,0,0-1.39,2.75-2.92,5.41-4.6,8-1.44-2.7-2.96-5.35-4.51-8h1.25ZM30.67,20.99c1.14,2.31,2.13,4.68,2.89,7.14-2.44.4-4.91.61-7.41.71,1.64-2.54,3.15-5.16,4.52-7.85ZM20,20.9s0,0,0,0c1.55,2.65,3.07,5.31,4.51,8-1.04.02-2.08.04-3.12.04-.46,0-.92,0-1.39,0-.46,0-.92,0-1.39,0-1.04,0-2.08-.02-3.12-.04,1.44-2.69,2.96-5.35,4.51-8,0,0,0,0,0,0ZM15.6,29.82c1,.02,2.01.04,3.01.04.46,0,.92,0,1.39,0,.46,0,.92,0,1.39,0,1.01,0,2.01-.01,3.01-.04-1.33,1.98-2.75,3.86-4.4,5.55-1.65-1.69-3.07-3.58-4.4-5.55ZM19.34,36.02c-.26,0-.52,0-.78,0-2.13,0-4.26-.14-6.32-.52.77-1.78,1.64-3.53,2.54-5.27,1.37,2.03,2.83,4,4.56,5.78ZM25.23,30.25c.9,1.74,1.77,3.48,2.54,5.27-2.07.37-4.19.52-6.32.52-.26,0-.52,0-.78,0,1.73-1.77,3.2-3.74,4.56-5.78ZM13.28,20.43c1.55,0,3.1,0,4.66,0h1.25c-1.55,2.64-3.07,5.3-4.51,8-1.68-2.59-3.21-5.25-4.6-8,0,0,0,0,0,0,1.07,0,2.13,0,3.2,0ZM13.85,28.84c-2.5-.11-4.97-.31-7.41-.71.76-2.46,1.74-4.82,2.89-7.14,1.37,2.69,2.88,5.31,4.52,7.85ZM1.5,20.57c-.04.15-.07.3-.11.46,0,.03-.01.06-.02.1-.04.17-.08.33-.11.5,0,.02,0,.04-.01.06-.07.33-.13.67-.19,1-.1-.74-.16-1.49-.16-2.24h.64s-.02.08-.03.13ZM2.04,26.57c-.02-.07-.04-.15-.05-.22-.13-.54-.18-1.09-.18-1.65,0-.92.15-1.88.35-2.82,0-.02,0-.04.01-.06,0-.02,0-.04.01-.05.7,2.12,1.68,4.17,2.76,6.09-.22-.05-.45-.09-.67-.15-.57-.14-1.12-.33-1.56-.59-.27-.16-.49-.34-.66-.54ZM5.01,29.94c-.11.56-.2,1.15-.2,1.74h0c-.83-1.09-1.53-2.29-2.12-3.54.24.11.48.2.72.28.63.2,1.28.33,1.85.44-.09.34-.18.7-.26,1.08ZM2.73,20.43c.53,0,1.05,0,1.58,0,1.02,0,2.04,0,3.07,0,.4,0,.8,0,1.2,0,0,0,0,0,0,0-1.12,2.24-2.09,4.54-2.87,6.92-1.23-2.18-2.3-4.53-2.98-6.92ZM6.07,33.16c-.23-.42-.33-.92-.33-1.49,0-.5.08-1.03.18-1.55.03-.15.06-.29.09-.44,1.19,1.9,2.55,3.74,4.11,5.38-.5-.13-1-.28-1.49-.47-.95-.36-1.83-.82-2.57-1.44ZM10.84,36.47c-.04.11-.07.22-.09.34-.63-.34-1.24-.72-1.83-1.13.67.22,1.35.39,2.01.53-.03.09-.07.17-.1.26ZM6.76,29.12c2.39.37,4.8.56,7.22.66-.9,1.74-1.77,3.49-2.56,5.29-1.78-1.76-3.33-3.81-4.66-5.95ZM11.61,37.24c.01-.15.05-.32.11-.49,0-.03.02-.06.03-.09.49.45,1.01.89,1.57,1.29-.58-.21-1.15-.45-1.71-.72ZM17.99,38.51c-.21.17-.42.3-.62.38-1-.22-1.96-.66-2.86-1.25-.5-.32-.98-.68-1.44-1.06,1.81.26,3.65.37,5.48.37.3,0,.6,0,.9,0-.11.14-.22.28-.34.42-.35.43-.74.85-1.12,1.15ZM20.36,39.04c-.12,0-.24,0-.36,0-.12,0-.24,0-.36,0-.27,0-.54,0-.81-.02.21-.19.42-.4.61-.61.2-.22.38-.44.56-.65.17.22.36.44.56.65.19.21.4.42.61.61-.27,0-.54.02-.81.02ZM22.62,38.9c-.19-.08-.4-.21-.62-.38-.38-.3-.77-.72-1.12-1.15-.12-.14-.23-.28-.34-.42.3,0,.6,0,.9,0,1.83,0,3.67-.11,5.48-.37-.46.38-.94.74-1.44,1.06-.9.58-1.86,1.03-2.86,1.25ZM26.68,37.96c.55-.41,1.08-.85,1.57-1.29.01.03.02.06.03.09.06.17.1.34.11.49-.56.27-1.13.5-1.71.72ZM26.03,29.77c2.42-.1,4.83-.29,7.22-.66-1.33,2.14-2.88,4.19-4.66,5.95-.78-1.8-1.65-3.56-2.56-5.29ZM29.25,36.81c-.03-.12-.06-.23-.09-.34-.03-.09-.06-.18-.1-.26.67-.14,1.35-.31,2.01-.53-.58.41-1.19.79-1.83,1.13ZM33.93,33.16c-.74.62-1.63,1.08-2.57,1.44-.48.18-.98.34-1.49.47,1.56-1.64,2.92-3.48,4.11-5.38.03.14.07.29.09.44.11.52.18,1.06.18,1.55,0,.56-.1,1.07-.33,1.49ZM31.42,20.43s0,0,0,0c.4,0,.8,0,1.2,0,1.02,0,2.04,0,3.07,0,.53,0,1.05,0,1.58,0-.67,2.39-1.75,4.74-2.98,6.92-.77-2.38-1.75-4.68-2.87-6.92ZM35.19,31.69h0c0-.6-.09-1.19-.2-1.75-.08-.38-.17-.74-.26-1.08.57-.11,1.22-.24,1.85-.44.25-.08.49-.17.72-.28-.59,1.25-1.29,2.45-2.12,3.55ZM38.02,26.35c-.02.07-.03.14-.05.22-.18.2-.4.39-.66.54-.44.26-.99.45-1.56.59-.22.06-.45.1-.67.15,1.08-1.92,2.06-3.97,2.76-6.09,0,.02,0,.04.01.05,0,.02,0,.04.01.06.2.94.35,1.9.35,2.82,0,.56-.06,1.12-.18,1.65ZM38.95,22.68c-.06-.34-.12-.67-.19-1,0-.02,0-.04-.01-.06-.04-.17-.08-.33-.11-.5,0-.03-.01-.07-.02-.1-.04-.15-.07-.3-.11-.46,0-.04-.02-.08-.03-.13h.64c0,.74-.06,1.49-.16,2.24Z"/>
</svg>